<svg height="300" viewBox="-26 0 436 436.336" width="300" xmlns="http://www.w3.org/2000/svg" version="1.1" xmlns:xlink="http://www.w3.org/1999/xlink" xmlns:svgjs="http://svgjs.dev/svgjs"><g width="100%" height="100%" transform="matrix(1,0,0,1,0,0)"><path d="m313.34375 284.304688h37.671875c4.417969 0 8-3.582032 8-8v-40.261719c0-4.417969-3.582031-8-8-8h-37.671875c-4.417969 0-8 3.582031-8 8v40.261719c0 4.417968 3.582031 8 8 8zm8-40.261719h21.671875v24.261719h-21.671875zm0 0" fill="#ffffff" fill-opacity="1" data-original-color="#000000ff" stroke="none" stroke-opacity="1"/><path d="m25.414062 84.015625v40.261719c0 4.417968 3.582032 8 8 8h37.671876c4.417968 0 8-3.582032 8-8v-40.261719c0-4.417969-3.582032-8-8-8h-37.671876c-4.417968 0-8 3.582031-8 8zm16 8h21.671876v24.261719h-21.671876zm0 0" fill="#ffffff" fill-opacity="1" data-original-color="#000000ff" stroke="none" stroke-opacity="1"/><path d="m313.34375 208.289062h37.671875c4.417969 0 8-3.582031 8-8v-40.257812c0-4.417969-3.582031-8-8-8h-37.671875c-4.417969 0-8 3.582031-8 8v40.257812c0 4.417969 3.582031 8 8 8zm8-40.257812h21.671875v24.257812h-21.671875zm0 0" fill="#ffffff" fill-opacity="1" data-original-color="#000000ff" stroke="none" stroke-opacity="1"/><path d="m33.414062 0h-25.246093c-4.417969 0-8 3.582031-8 8v420.335938c0 4.417968 3.582031 8 8 8h25.246093c4.421876 0 8-3.582032 8-8v-32.261719h21.671876v32.261719c0 4.417968 3.578124 8 8 8h242.257812c4.417969 0 8-3.582032 8-8v-32.261719h21.671875v32.261719c0 4.417968 3.582031 8 8 8h25.253906c4.417969 0 8-3.582032 8-8v-420.335938c0-4.417969-3.582031-8-8-8h-25.253906c-4.417969 0-8 3.582031-8 8v32.261719h-21.671875v-32.261719c0-4.417969-3.582031-8-8-8h-242.253906c-4.421875 0-8 3.582031-8 8v32.261719h-21.675782v-32.261719c0-4.417969-3.578124-8-8-8zm70.761719 420.335938v-176.070313h176.078125v176.070313zm176.078125-404.335938v176.070312h-176.074218v-176.070312zm-209.164062 40.261719c4.417968 0 8-3.582031 8-8v-32.261719h9.089844v184.070312c0 4.421876 3.582031 8 8 8h192.074218c4.417969 0 8-3.578124 8-8v-184.070312h9.089844v32.261719c0 4.417969 3.582031 8 8 8h37.671875c4.417969 0 8-3.582031 8-8v-32.261719h9.253906v404.335938h-9.253906v-32.261719c0-4.417969-3.582031-8-8-8h-37.671875c-4.417969 0-8 3.582031-8 8v32.261719h-9.089844v-184.070313c0-4.417969-3.582031-8-8-8h-192.074218c-4.417969 0-8 3.582031-8 8v184.070313h-9.089844v-32.261719c0-4.417969-3.582032-8-8-8h-37.675782c-4.417968 0-8 3.582031-8 8v32.261719h-9.246093v-404.335938h9.246093v32.261719c0 4.417969 3.582032 8 8 8zm0 0" fill="#ffffff" fill-opacity="1" data-original-color="#000000ff" stroke="none" stroke-opacity="1"/><path d="m71.089844 304.058594h-37.675782c-4.417968 0-8 3.582031-8 8v40.261718c0 4.417969 3.582032 8 8 8h37.671876c4.417968 0 8-3.582031 8-8v-40.261718c0-4.414063-3.582032-7.996094-7.996094-8zm-8 40.261718h-21.675782v-24.261718h21.671876zm0 0" fill="#ffffff" fill-opacity="1" data-original-color="#000000ff" stroke="none" stroke-opacity="1"/><path d="m313.34375 132.277344h37.671875c4.417969 0 8-3.582032 8-8v-40.261719c0-4.417969-3.582031-8-8-8h-37.671875c-4.417969 0-8 3.582031-8 8v40.261719c0 4.417968 3.582031 8 8 8zm8-40.261719h21.671875v24.261719h-21.671875zm0 0" fill="#ffffff" fill-opacity="1" data-original-color="#000000ff" stroke="none" stroke-opacity="1"/><path d="m313.34375 360.320312h37.671875c4.417969 0 8-3.582031 8-8v-40.261718c0-4.417969-3.582031-8-8-8h-37.671875c-4.417969 0-8 3.582031-8 8v40.261718c0 4.417969 3.582031 8 8 8zm8-40.261718h21.671875v24.261718h-21.671875zm0 0" fill="#ffffff" fill-opacity="1" data-original-color="#000000ff" stroke="none" stroke-opacity="1"/><path d="m71.089844 228.042969h-37.675782c-4.417968 0-8 3.582031-8 8v40.261719c0 4.417968 3.582032 8 8 8h37.671876c4.417968 0 8-3.582032 8-8v-40.261719c0-4.414063-3.582032-7.996094-7.996094-8zm-8 40.261719h-21.675782v-24.261719h21.671876zm0 0" fill="#ffffff" fill-opacity="1" data-original-color="#000000ff" stroke="none" stroke-opacity="1"/><path d="m71.089844 152.03125h-37.675782c-4.417968 0-8 3.582031-8 8v40.257812c0 4.417969 3.582032 8 8 8h37.671876c4.417968 0 8-3.582031 8-8v-40.257812c0-4.414062-3.582032-7.996094-7.996094-8zm-8 40.257812h-21.675782v-24.257812h21.671876zm0 0" fill="#ffffff" fill-opacity="1" data-original-color="#000000ff" stroke="none" stroke-opacity="1"/></g></svg>