<svg height="300" viewBox="0 0 512 512.00066" width="300" xmlns="http://www.w3.org/2000/svg" version="1.1" xmlns:xlink="http://www.w3.org/1999/xlink" xmlns:svgjs="http://svgjs.dev/svgjs"><g width="100%" height="100%" transform="matrix(1,0,0,1,0,0)"><path d="m333.023438 115.074219v45.832031l-85.71875 85.71875c-5.078126 4.90625-5.21875 12.996094-.316407 18.074219 4.90625 5.074219 12.996094 5.214843 18.074219.3125.105469-.101563.210938-.207031.3125-.3125l85.722656-85.722657h45.828125c3.390625 0 6.640625-1.34375 9.035157-3.742187l76.683593-76.683594c4.992188-4.992187 4.992188-13.085937 0-18.078125-2.398437-2.394531-5.648437-3.738281-9.035156-3.742187h-38.339844v-38.339844c-.003906-7.058594-5.726562-12.777344-12.785156-12.777344-3.386719 0-6.636719 1.347657-9.035156 3.742188l-76.683594 76.683593c-2.394531 2.394532-3.742187 5.648438-3.742187 9.035157zm0 0" fill="#ffffff" fill-opacity="1" data-original-color="#000000ff" stroke="none" stroke-opacity="1"/><path d="m296.242188 161.539062c-52.003907-22.0625-112.042969 2.214844-134.105469 54.21875-22.0625 52.003907 2.214843 112.046876 54.21875 134.105469 52.003906 22.0625 112.046875-2.210937 134.105469-54.21875 10.832031-25.527343 10.832031-54.359375 0-79.886719l-67.011719 67.011719c-14.757813 15.1875-39.03125 15.539063-54.21875.785157-15.1875-14.757813-15.539063-39.03125-.785157-54.21875.257813-.265626.519532-.523438.785157-.78125zm0 0" fill="#ffffff" fill-opacity="1" data-original-color="#000000ff" stroke="none" stroke-opacity="1"/><path d="m481.824219 135.523438-38.242188 38.238281c45.4375 103.617187-1.722656 224.449219-105.339843 269.886719-103.613282 45.4375-224.445313-1.726563-269.886719-105.339844-45.4375-103.617188 1.726562-224.449219 105.34375-269.886719 52.4375-22.996094 112.105469-22.996094 164.542969 0l38.234374-38.246094c-124.71875-66.535156-279.761718-19.371093-346.296874 105.347657-66.539063 124.714843-19.375 279.761718 105.34375 346.300781 124.71875 66.535156 279.761718 19.371093 346.300781-105.347657 40.167969-75.296874 40.167969-165.65625 0-240.953124zm0 0" fill="#ffffff" fill-opacity="1" data-original-color="#000000ff" stroke="none" stroke-opacity="1"/><path d="m307.460938 115.074219c-.015626-10.101563 3.976562-19.796875 11.105468-26.953125-92.929687-34.765625-196.445312 12.382812-231.214844 105.3125-34.765624 92.929687 12.382813 196.445312 105.3125 231.214844 92.929688 34.765624 196.445313-12.382813 231.214844-105.3125 15.1875-40.59375 15.1875-85.308594 0-125.902344-7.15625 7.128906-16.851562 11.125-26.953125 11.105468h-23.613281c28.496094 64.867188-.984375 140.550782-65.851562 169.046876-64.863282 28.5-140.550782-.984376-169.046876-65.847657-28.5-64.867187.984376-140.550781 65.847657-169.050781 32.886719-14.445312 70.316406-14.445312 103.199219 0zm0 0" fill="#ffffff" fill-opacity="1" data-original-color="#000000ff" stroke="none" stroke-opacity="1"/></g></svg>